name analog
datacolumns 19
datarows 32
range 0.339 0.3545
endheader
time	ground_force_vx	ground_force_vy	ground_force_vz	ground_force_px	ground_force_py	ground_force_pz	l_ground_force_vx	l_ground_force_vy	l_ground_force_vz	l_ground_force_px	l_ground_force_py	l_ground_force_pz	ground_torque_x	ground_torque_y	ground_torque_z	l_ground_torque_x	l_ground_torque_y	l_ground_torque_z
0.339	-0.0	-0.0	-0.0	0.2011090964078903	60.96519470214844	-478.0464172363281	1.3917593955993652	-63.76825714111328	-507.2086181640625	-0.0	-0.0	-0.0	-0.0	-0.0	-0.0	76014.7421875	3165.25390625	-9600.4248046875
0.3395	-0.0	-0.0	-0.0	-0.2273362874984741	61.12903594970703	-478.0461120605469	1.8350942134857176	-63.8288688659668	-506.9248046875	-0.0	-0.0	-0.0	-0.0	-0.0	-0.0	76001.4453125	3331.61083984375	-9566.728515625
0.34	-0.0	-0.0	-0.0	-0.1528366804122924	61.12019348144531	-477.1123352050781	1.746246337890625	-63.85658264160156	-507.1642150878906	-0.0	-0.0	-0.0	-0.0	-0.0	-0.0	75953.484375	3522.855712890625	-9477.806640625
0.3405	-0.0	-0.0	-0.0	-0.7052475214004517	60.86763381958008	-476.22015380859375	1.7850486040115356	-64.09356689453125	-506.4910888671875	-0.0	-0.0	-0.0	-0.0	-0.0	-0.0	75834.0390625	3626.877685546875	-9507.5029296875
0.341	-0.0	-0.0	-0.0	-0.2915125489234924	60.876068115234375	-475.8935546875	2.157383918762207	-63.906063079833984	-506.0742492675781	-0.0	-0.0	-0.0	-0.0	-0.0	-0.0	75823.328125	3538.07177734375	-9523.8095703125
0.3415	-0.0	-0.0	-0.0	-0.5029234886169434	60.69780731201172	-476.535400390625	1.990705132484436	-63.66940689086914	-505.9623107910156	-0.0	-0.0	-0.0	-0.0	-0.0	-0.0	75414.015625	3812.716796875	-9514.3212890625
0.342	-0.0	-0.0	-0.0	-0.4054624140262604	61.02179718017578	-476.28076171875	2.256910562515259	-63.46432495117188	-505.33538818359375	-0.0	-0.0	-0.0	-0.0	-0.0	-0.0	75660.3984375	3969.33642578125	-9493.9189453125
0.3425	-0.0	-0.0	-0.0	-0.3974780440330505	61.04639434814453	-474.5167236328125	1.7165178060531616	-63.59161376953125	-506.3511962890625	-0.0	-0.0	-0.0	-0.0	-0.0	-0.0	75425.2890625	3818.068603515625	-9550.916015625
0.343	-0.0	-0.0	-0.0	-0.1299023628234863	61.26387023925781	-476.2476501464844	1.6258097887039185	-63.70882415771485	-505.8064880371094	-0.0	-0.0	-0.0	-0.0	-0.0	-0.0	75598.7890625	4076.769287109375	-9471.015625
0.3435	-0.0	-0.0	-0.0	-0.3007169067859649	61.41085052490234	-476.6011352539063	1.6361093521118164	-63.63075637817383	-506.4245910644531	-0.0	-0.0	-0.0	-0.0	-0.0	-0.0	75668.5859375	4013.516845703125	-9596.484375
0.34400000000000003	-0.0	-0.0	-0.0	-0.2524549961090088	61.60427474975586	-475.51171875	1.6167727708816528	-63.82733917236328	-507.1230773925781	-0.0	-0.0	-0.0	-0.0	-0.0	-0.0	75760.875	4154.6611328125	-9566.68359375
0.34450000000000003	-0.0	-0.0	-0.0	-0.2267645001411438	62.034759521484375	-477.8228454589844	1.5869158506393433	-64.0921401977539	-509.1019592285156	-0.0	-0.0	-0.0	-0.0	-0.0	-0.0	75916.1796875	4121.07861328125	-9629.603515625
0.34500000000000003	-0.0	-0.0	-0.0	-0.1857506185770034	61.93098831176758	-478.396728515625	1.5080833435058594	-64.38650512695312	-508.752197265625	-0.0	-0.0	-0.0	-0.0	-0.0	-0.0	76100.6015625	3916.122802734375	-9557.15234375
0.34550000000000003	-0.0	-0.0	-0.0	0.2748692631721496	62.227481842041016	-479.3988037109375	1.882208108901977	-64.28858947753906	-510.3040771484375	-0.0	-0.0	-0.0	-0.0	-0.0	-0.0	76375.2265625	4098.9873046875	-9599.69921875
0.34600000000000003	-0.0	-0.0	-0.0	0.1642392724752426	62.275299072265625	-480.6779174804688	1.6269073486328125	-64.47483825683594	-512.2801513671875	-0.0	-0.0	-0.0	-0.0	-0.0	-0.0	76666.2890625	4123.845703125	-9474.3291015625
0.34650000000000003	-0.0	-0.0	-0.0	0.7547999024391174	62.535438537597656	-484.2373046875	1.4871869087219238	-64.69096374511719	-513.289794921875	-0.0	-0.0	-0.0	-0.0	-0.0	-0.0	76773.0859375	3955.489501953125	-9481.3408203125
0.34700000000000003	-0.0	-0.0	-0.0	1.0567532777786257	62.47352981567383	-485.6224365234375	1.5782108306884766	-64.91644287109375	-513.9146118164062	-0.0	-0.0	-0.0	-0.0	-0.0	-0.0	76897.140625	3940.8251953125	-9580.4658203125
0.34750000000000003	-0.0	-0.0	-0.0	1.9348747730255127	62.80247116088867	-486.84521484375	1.535520076751709	-64.57225799560547	-515.6609497070312	-0.0	-0.0	-0.0	-0.0	-0.0	-0.0	77232.34375	3880.736083984375	-9435.1708984375
0.34800000000000003	-0.0	-0.0	-0.0	2.6896097660064697	63.05644226074219	-488.9118347167969	1.2419509887695312	-64.65147399902344	-516.1315307617188	-0.0	-0.0	-0.0	-0.0	-0.0	-0.0	77303.2421875	4071.193603515625	-9607.314453125
0.34850000000000003	-0.0	-0.0	-0.0	3.492280960083008	63.67387771606445	-492.4706115722656	1.03770112991333	-64.55425262451172	-517.5130615234375	-0.0	-0.0	-0.0	-0.0	-0.0	-0.0	77804.1796875	4150.404296875	-9521.4892578125
0.34900000000000003	-0.0	-0.0	-0.0	4.103683471679688	63.68048095703125	-495.3981018066406	0.7584400177001953	-64.26716613769531	-517.9144897460938	-0.0	-0.0	-0.0	-0.0	-0.0	-0.0	77524.6171875	4172.70751953125	-9604.748046875
0.34950000000000003	-0.0	-0.0	-0.0	4.954331398010254	64.43499755859375	-498.4366149902344	0.4922617375850677	-64.09038543701172	-518.1752319335938	-0.0	-0.0	-0.0	-0.0	-0.0	-0.0	77966.890625	4135.07177734375	-9546.8173828125
0.35000000000000003	-0.0	-0.0	-0.0	5.489521026611328	65.11283874511719	-499.8470153808594	0.3548431396484375	-63.831016540527344	-518.4227905273438	-0.0	-0.0	-0.0	-0.0	-0.0	-0.0	78071.75	4414.71044921875	-9635.6962890625
0.35050000000000003	-0.0	-0.0	-0.0	5.501589298248291	66.07506561279297	-501.8446960449219	0.3231885433197021	-64.25823974609375	-520.4271850585938	-0.0	-0.0	-0.0	-0.0	-0.0	-0.0	77839.0	4391.080078125	-9778.3916015625
0.35100000000000003	-0.0	-0.0	-0.0	6.167413234710693	66.4259033203125	-503.46978759765625	0.4435539245605469	-63.54329681396485	-522.330810546875	-0.0	-0.0	-0.0	-0.0	-0.0	-0.0	78550.5703125	4371.94580078125	-9702.53125
0.35150000000000003	-0.0	-0.0	-0.0	5.566961288452148	67.91737365722656	-507.0701293945313	0.4755963385105133	-63.47877502441406	-525.3147583007812	-0.0	-0.0	-0.0	-0.0	-0.0	-0.0	78885.3125	4363.7578125	-9643.138671875
0.352	-0.0	-0.0	-0.0	5.525346279144287	68.7252426147461	-510.7433471679688	0.6531551480293274	-63.495208740234375	-530.01220703125	-0.0	-0.0	-0.0	-0.0	-0.0	-0.0	79417.6328125	4449.0595703125	-9713.08984375
0.3525	-0.0	-0.0	-0.0	5.441841125488281	70.22917175292969	-512.7182006835938	0.7743790149688721	-63.92067337036133	-534.106201171875	-0.0	-0.0	-0.0	-0.0	-0.0	-0.0	80272.421875	4435.5556640625	-9715.8271484375
0.353	-0.0	-0.0	-0.0	5.121434688568115	71.25159454345703	-516.824951171875	0.4435539245605469	-64.51508331298828	-538.6436767578125	-0.0	-0.0	-0.0	-0.0	-0.0	-0.0	80770.2265625	4360.05078125	-9837.4970703125
0.3535	-0.0	-0.0	-0.0	4.853940963745117	72.44696807861328	-520.7955932617188	0.515099287033081	-65.43863677978516	-543.8494873046875	-0.0	-0.0	-0.0	-0.0	-0.0	-0.0	81545.3125	4645.88232421875	-9807.9873046875
0.354	-0.0	-0.0	-0.0	5.342215538024902	73.22843170166016	-524.99169921875	0.5170196294784546	-65.84761047363281	-548.357666015625	-0.0	-0.0	-0.0	-0.0	-0.0	-0.0	82368.953125	4610.54931640625	-9899.58203125
0.3545	-0.0	-0.0	-0.0	5.741337299346924	74.11956787109375	-529.189697265625	0.0631346404552459	-66.77867126464844	-553.05615234375	-0.0	-0.0	-0.0	-0.0	-0.0	-0.0	83108.453125	4569.982421875	-9961.90625
